# xmcd
#
# Track frame offsets:
#	150
#	14700
#	36075
#	57975
#	70500
#	88125
#	98475
#	110100
#	121238
#	136500
#	150713
#	168000
#
# Disc length: 2468 seconds
#
# Revision: 2
# Processed by: cddbd v1.5.2PL0 Copyright (c) Steve Scherf et al.
# Submitted via: audiograbber 1.83.01
#
DISCID=9209a20c
DTITLE=MARIACHI - KARAOKE BOX 002 CDGKB-2 EXITOS CON MARIACHI II
DYEAR=0
DGENRE=RANCHERO
TTITLE0=MIGUEL A. MEJIA - PELEA DE GALLOS
TTITLE1=JUAN GABRIEL - HASTA QUE TE CONOCI
TTITLE2=VICENTE FERNANDEZ - GUADALAJARA
TTITLE3=JUAN GABRIEL - JURO QUE NUNCA VOLVERE
TTITLE4=VARIOS - EL CASCABEL
TTITLE5=JUAN GABRIEL - NO DISCUTAMOS
TTITLE6=LUCHA VILLA - FINA ESTAMPA
TTITLE7=JUAN GABRIEL - TE LLEGARA MI OLVIDO
TTITLE8=VICENTE FERNANDEZ - MI VIEJO
TTITLE9=JUAN GABRIEL - TE VOY A OLVIDAR
TTITLE10=VICENTE FERNANDEZ - CAMINOS DE MICHOACAN
TTITLE11=JUAN GABRIEL - TE QUIERO MUCHO
EXTD=CAMBIAR CATEGORIA A FOLK
EXTT0=
EXTT1=
EXTT2=
EXTT3=
EXTT4=
EXTT5=
EXTT6=
EXTT7=
EXTT8=
EXTT9=
EXTT10=
EXTT11=
PLAYORDER=
